HIERARCHY
ROOT hip
{
  OFFSET 0 0 0
  CHANNELS 6 Xposition Yposition Zposition Zrotation Yrotation Xrotation
  JOINT abdomen
  {
    OFFSET 0 20.6881 -0.73152
    CHANNELS 3 Zrotation Xrotation Yrotation
    JOINT chest
    {
      OFFSET 0 11.7043 -0.48768
      CHANNELS 3 Zrotation Xrotation Yrotation
      JOINT neck
      {
        OFFSET 0 22.1894 -2.19456
        CHANNELS 3 Zrotation Xrotation Yrotation
        JOINT head
        {
          OFFSET -0.24384 7.07133 1.2192
          CHANNELS 3 Zrotation Xrotation Yrotation
          JOINT leftEye
          {
            OFFSET 4.14528 8.04674 8.04672
            CHANNELS 3 Zrotation Xrotation Yrotation
            End Site
            {
              OFFSET 1 0 0
            }
          }
          JOINT rightEye
          {
            OFFSET -3.6576 8.04674 8.04672
            CHANNELS 3 Zrotation Xrotation Yrotation
            End Site
            {
              OFFSET 1 0 0
            }
          }
        }
      }
      JOINT rCollar
      {
        OFFSET -2.68224 19.2634 -4.8768
        CHANNELS 3 Zrotation Xrotation Yrotation
        JOINT rShldr
        {
          OFFSET -8.77824 -1.95073 1.46304
          CHANNELS 3 Zrotation Xrotation Yrotation
          JOINT rForeArm
          {
            OFFSET -28.1742 -1.7115 0.48768
            CHANNELS 3 Zrotation Xrotation Yrotation
            JOINT rHand
            {
              OFFSET -22.5879 0.773209 7.07136
              CHANNELS 3 Zrotation Xrotation Yrotation
              JOINT rThumb1
              {
                OFFSET -1.2192 -0.487915 3.41376
                CHANNELS 3 Zrotation Xrotation Yrotation
                JOINT rThumb2
                {
                  OFFSET -3.37035 -0.52449 3.41376
                  CHANNELS 3 Zrotation Xrotation Yrotation
                  End Site
                  {
                    OFFSET -1.78271 -1.18214 1.43049
                  }
                }
              }
              JOINT rIndex1
              {
                OFFSET -7.75947 0.938293 5.60832
                CHANNELS 3 Zrotation Xrotation Yrotation
                JOINT rIndex2
                {
                  OFFSET -2.54057 -0.884171 1.56538
                  CHANNELS 3 Zrotation Xrotation Yrotation
                  End Site
                  {
                    OFFSET -1.62519 -0.234802 1.16502
                  }
                }
              }
              JOINT rMid1
              {
                OFFSET -8.24714 1.18213 3.41376
                CHANNELS 3 Zrotation Xrotation Yrotation
                JOINT rMid2
                {
                  OFFSET -3.10165 -0.590103 1.0647
                  CHANNELS 3 Zrotation Xrotation Yrotation
                  End Site
                  {
                    OFFSET -2.48547 -0.328903 0.83742
                  }
                }
              }
              JOINT rRing1
              {
                OFFSET -8.82822 0.546677 1.51678
                CHANNELS 3 Zrotation Xrotation Yrotation
                JOINT rRing2
                {
                  OFFSET -2.60934 -0.819778 -0.0198488
                  CHANNELS 3 Zrotation Xrotation Yrotation
                  End Site
                  {
                    OFFSET -2.33842 -0.294052 0.168128
                  }
                }
              }
              JOINT rPinky1
              {
                OFFSET -8.27202 -0.0477905 -0.4584
                CHANNELS 3 Zrotation Xrotation Yrotation
                JOINT rPinky2
                {
                  OFFSET -1.82734 -0.647385 -0.700984
                  CHANNELS 3 Zrotation Xrotation Yrotation
                  End Site
                  {
                    OFFSET -1.69225 -0.51767 -0.607171
                  }
                }
              }
            }
          }
        }
      }
      JOINT lCollar
      {
        OFFSET 2.68224 19.2634 -4.8768
        CHANNELS 3 Zrotation Xrotation Yrotation
        JOINT lShldr
        {
          OFFSET 8.77824 -1.95073 1.46304
          CHANNELS 3 Zrotation Xrotation Yrotation
          JOINT lForeArm
          {
            OFFSET 28.1742 -1.7115 0.48768
            CHANNELS 3 Zrotation Xrotation Yrotation
            JOINT lHand
            {
              OFFSET 22.5879 0.773209 7.07136
              CHANNELS 3 Zrotation Xrotation Yrotation
              JOINT lThumb1
              {
                OFFSET 1.2192 -0.487915 3.41376
                CHANNELS 3 Zrotation Xrotation Yrotation
                JOINT lThumb2
                {
                  OFFSET 3.37035 -0.52449 3.41376
                  CHANNELS 3 Zrotation Xrotation Yrotation
                  End Site
                  {
                    OFFSET 1.78271 -1.18214 1.43049
                  }
                }
              }
              JOINT lIndex1
              {
                OFFSET 7.75947 0.938293 5.60832
                CHANNELS 3 Zrotation Xrotation Yrotation
                JOINT lIndex2
                {
                  OFFSET 2.54057 -0.884171 1.56538
                  CHANNELS 3 Zrotation Xrotation Yrotation
                  End Site
                  {
                    OFFSET 1.62519 -0.234802 1.16502
                  }
                }
              }
              JOINT lMid1
              {
                OFFSET 8.24714 1.18213 3.41376
                CHANNELS 3 Zrotation Xrotation Yrotation
                JOINT lMid2
                {
                  OFFSET 3.10165 -0.590103 1.0647
                  CHANNELS 3 Zrotation Xrotation Yrotation
                  End Site
                  {
                    OFFSET 2.48547 -0.328903 0.83742
                  }
                }
              }
              JOINT lRing1
              {
                OFFSET 8.82822 0.546677 1.51678
                CHANNELS 3 Zrotation Xrotation Yrotation
                JOINT lRing2
                {
                  OFFSET 2.60934 -0.819778 -0.0198488
                  CHANNELS 3 Zrotation Xrotation Yrotation
                  End Site
                  {
                    OFFSET 2.33842 -0.294052 0.168128
                  }
                }
              }
              JOINT lPinky1
              {
                OFFSET 8.27202 -0.0477905 -0.4584
                CHANNELS 3 Zrotation Xrotation Yrotation
                JOINT lPinky2
                {
                  OFFSET 1.82734 -0.647385 -0.700984
                  CHANNELS 3 Zrotation Xrotation Yrotation
                  End Site
                  {
                    OFFSET 1.69225 -0.51767 -0.607171
                  }
                }
              }
            }
          }
        }
      }
    }
  }
  JOINT rButtock
  {
    OFFSET -8.77824 4.35084 1.2192
    CHANNELS 3 Zrotation Xrotation Yrotation
    JOINT rThigh
    {
      OFFSET 0 -1.70687 -2.19456
      CHANNELS 3 Zrotation Xrotation Yrotation
      JOINT rShin
      {
        OFFSET 0 -36.8199 0.73152
        CHANNELS 3 Zrotation Xrotation Yrotation
        JOINT rFoot
        {
          OFFSET 0.73152 -45.1104 -5.12064
          CHANNELS 3 Zrotation Xrotation Yrotation
          End Site
          {
            OFFSET -1.1221 -3.69964 12.103
          }
        }
      }
    }
  }
  JOINT lButtock
  {
    OFFSET 8.77824 4.35084 1.2192
    CHANNELS 3 Zrotation Xrotation Yrotation
    JOINT lThigh
    {
      OFFSET 0 -1.70687 -2.19456
      CHANNELS 3 Zrotation Xrotation Yrotation
      JOINT lShin
      {
        OFFSET 0 -36.8199 0.73152
        CHANNELS 3 Zrotation Xrotation Yrotation
        JOINT lFoot
        {
          OFFSET -0.73152 -45.1104 -5.12064
          CHANNELS 3 Zrotation Xrotation Yrotation
          End Site
          {
            OFFSET 1.1221 -3.69964 12.103
          }
        }
      }
    }
  }
}
MOTION
Frames:	7
Frame Time:	0.00833333
4.47708 75.5227 22.2464 -14.8471 21.2174 7.9555 13.604 15.0032 2.99028 0.610811 -7.97483 1.1753 -1.43394 -2.89144 -1.24642 -2.40012 -18.4499 -2.41193 -0.0 0.0 0.0 -0.0 0.0 0.0 3.75597e-13 -2.45489e-13 4.77447e-13 88.7846 27.6451 -22.6184 -28.2952 -32.7862 71.6509 -0.0773109 -7.90613 -1.11831 -2.67145e-09 2.28759e-09 1.17672e-09 -4.62299e-09 3.99145e-09 2.01637e-09 -2.67145e-09 2.28759e-09 1.17672e-09 7.73091 5.47488 0.417314 -2.67146e-09 2.28759e-09 1.17672e-09 2.90554 0.965183 0.102902 -2.67145e-09 2.28759e-09 1.17672e-09 10.2786 0.731801 0.0259123 -2.67146e-09 2.2876e-09 1.17673e-09 2.22167 -0.733487 -0.20892 3.75536e-13 -2.45509e-13 4.77185e-13 -112.0 30.9425 46.4157 27.1761 -43.5167 -90.502 0.73895 -23.651 3.52873 -2.5272e-09 -2.10834e-09 -2.30571e-09 -4.32537e-09 -3.5404e-09 -4.03714e-09 -2.52719e-09 -2.10832e-09 -2.30569e-09 -7.73091 5.47488 -0.417314 -2.5272e-09 -2.10834e-09 -2.3057e-09 -2.90554 0.965183 -0.102902 -2.5272e-09 -2.10834e-09 -2.30571e-09 -10.2786 0.731801 -0.0259123 -2.5272e-09 -2.10834e-09 -2.30571e-09 -2.22167 -0.733487 0.20892 -2.03217e-16 0.0 -3.88251e-19 -6.46921 -20.0518 -10.1171 -4.18353 77.9749 4.36899 0.256599 21.629 -4.96439 2.03217e-16 0.0 3.88251e-19 -10.1817 -48.7606 7.22036 0.713639 49.0448 -0.158568 -0.514348 -6.00991 -5.05015
5.17891 74.8206 25.0972 -13.7676 21.6862 8.2164 12.2061 14.7673 2.47834 0.737615 -8.10374 0.991187 -1.55009 -2.86772 -1.23445 -2.18514 -18.527 -2.31631 -0.0 0.0 0.0 -0.0 0.0 0.0 4.79639e-13 -1.10913e-13 7.43082e-14 89.2122 26.5751 -23.2743 -28.1712 -31.6447 69.7346 -0.0747216 -7.77583 -1.09965 -2.37275e-09 5.63879e-10 1.90596e-09 -4.10747e-09 1.01677e-09 3.27182e-09 -2.37275e-09 5.63881e-10 1.90596e-09 7.73091 5.47488 0.417314 -2.37275e-09 5.63883e-10 1.90595e-09 2.90554 0.965183 0.102902 -2.37274e-09 5.63883e-10 1.90596e-09 10.2786 0.731801 0.0259123 -2.37275e-09 5.63885e-10 1.90597e-09 2.22167 -0.733487 -0.20892 4.79575e-13 -1.1093e-13 7.40256e-14 -110.792 31.2515 43.9971 27.0721 -43.795 -91.0677 0.717377 -23.3287 3.47474 -9.4941e-10 2.45581e-09 -3.25963e-09 -1.57663e-09 4.36724e-09 -5.66209e-09 -9.49407e-10 2.45582e-09 -3.25961e-09 -7.73091 5.47488 -0.417314 -9.4941e-10 2.4558e-09 -3.25962e-09 -2.90554 0.965183 -0.102902 -9.49417e-10 2.45581e-09 -3.25962e-09 -10.2786 0.731801 -0.0259123 -9.49408e-10 2.45581e-09 -3.25963e-09 -2.22167 -0.733487 0.20892 -2.03217e-16 0.0 -3.88251e-19 -9.35585 -23.0234 -11.124 -6.10633 81.1792 6.25885 0.191856 20.7415 -5.07982 2.03217e-16 0.0 3.88251e-19 -12.4554 -47.0546 5.36534 0.745328 50.3862 -0.289019 -0.298762 -9.36468 -3.20554
5.87476 74.1537 27.8884 -12.6314 22.2193 8.6163 10.8086 14.4905 1.95909 0.863473 -8.24497 0.806277 -1.66847 -2.88166 -1.23777 -1.9824 -18.6034 -2.25165 -0.0 0.0 0.0 -0.0 0.0 0.0 5.53787e-13 4.49322e-14 -3.48417e-13 89.6194 25.4485 -23.99 -27.9988 -30.5242 67.9609 -0.0717264 -7.62023 -1.07737 -1.87075e-09 -1.43271e-09 2.65164e-09 -3.24092e-09 -2.43192e-09 4.5572e-09 -1.87075e-09 -1.43272e-09 2.65164e-09 7.73091 5.47488 0.417314 -1.87075e-09 -1.43271e-09 2.65164e-09 2.90554 0.965183 0.102902 -1.87075e-09 -1.43271e-09 2.65164e-09 10.2786 0.731801 0.0259123 -1.87076e-09 -1.43271e-09 2.65165e-09 2.22167 -0.733487 -0.20892 5.53724e-13 4.49188e-14 -3.48716e-13 -109.457 31.6812 41.3017 26.9531 -44.1153 -91.7043 0.696549 -23.0101 3.4217 7.24544e-10 7.23204e-09 -4.07259e-09 1.33551e-09 1.26386e-08 -7.04101e-09 7.24548e-10 7.23206e-09 -4.07258e-09 -7.73091 5.47488 -0.417314 7.24543e-10 7.23204e-09 -4.07258e-09 -2.90554 0.965183 -0.102902 7.24536e-10 7.23204e-09 -4.07258e-09 -10.2786 0.731801 -0.0259123 7.2455e-10 7.23205e-09 -4.07259e-09 -2.22167 -0.733487 0.20892 -2.03217e-16 0.0 -3.88251e-19 -12.3452 -26.1701 -12.2113 -9.75571 84.1218 9.88144 0.11038 19.81 -5.1693 2.03217e-16 0.0 3.88251e-19 -14.5393 -45.3022 3.64706 0.777407 51.6305 -0.432641 0.096288 -12.6491 -1.46395
6.55246 73.5364 30.6384 -11.5229 22.7913 9.1088 9.58887 14.1881 1.47648 0.973706 -8.36842 0.639588 -1.7819 -2.93019 -1.26545 -1.79952 -18.6536 -2.23891 -0.0 0.0 0.0 -0.0 0.0 0.0 5.54183e-13 1.65394e-13 -5.75581e-13 90.0378 24.3104 -24.8535 -27.8007 -29.5333 66.5045 -0.0699352 -7.52382 -1.06359 -1.47092e-09 -2.66263e-09 3.15479e-09 -2.55152e-09 -4.55721e-09 5.42606e-09 -1.47091e-09 -2.66263e-09 3.15479e-09 7.73091 5.47488 0.417314 -1.47092e-09 -2.66263e-09 3.15478e-09 2.90554 0.965183 0.102902 -1.47092e-09 -2.66263e-09 3.15479e-09 10.2786 0.731801 0.0259123 -1.47093e-09 -2.66262e-09 3.1548e-09 2.22167 -0.733487 -0.20892 5.54128e-13 1.65384e-13 -5.75879e-13 -108.066 32.2381 38.4078 26.8032 -44.5223 -92.4894 0.678294 -22.7249 3.37445 1.55026e-09 1.0147e-08 -4.53822e-09 2.7724e-09 1.7692e-08 -7.83214e-09 1.55027e-09 1.0147e-08 -4.53821e-09 -7.73091 5.47488 -0.417314 1.55026e-09 1.0147e-08 -4.53821e-09 -2.90554 0.965183 -0.102902 1.55026e-09 1.0147e-08 -4.53822e-09 -10.2786 0.731801 -0.0259123 1.55027e-09 1.0147e-08 -4.53822e-09 -2.22167 -0.733487 0.20892 -2.03217e-16 0.0 -3.88251e-19 -15.178 -29.3869 -13.3462 -18.033 86.6263 18.137 0.0369756 18.8993 -5.34805 2.03217e-16 0.0 3.88251e-19 -16.1077 -43.5162 2.337 0.806273 52.7161 -0.571927 0.481024 -15.5036 -0.249994
7.20706 72.9772 33.3716 -10.5105 23.3922 9.6333 8.58875 13.8609 1.05557 1.05556 -8.47548 0.499806 -1.90241 -3.02713 -1.3387 -1.63343 -18.6873 -2.31556 -0.0 0.0 0.0 -0.0 0.0 0.0 4.3703e-13 2.37227e-13 -5.00509e-13 90.4599 23.0682 -25.8718 -27.6193 -28.7315 65.3041 -0.068926 -7.45952 -1.05442 -1.22966e-09 -2.72731e-09 3.30487e-09 -2.13702e-09 -4.67125e-09 5.6887e-09 -1.22965e-09 -2.72732e-09 3.30487e-09 7.73091 5.47488 0.417314 -1.22966e-09 -2.72732e-09 3.30487e-09 2.90554 0.965183 0.102902 -1.22965e-09 -2.72731e-09 3.30487e-09 10.2786 0.731801 0.0259123 -1.22967e-09 -2.72731e-09 3.30488e-09 2.22167 -0.733487 -0.20892 4.36997e-13 2.37222e-13 -5.00777e-13 -106.528 32.9782 35.1781 26.6053 -45.0029 -93.456 0.661457 -22.4591 3.33056 1.0796e-09 1.0065e-08 -4.48641e-09 1.95484e-09 1.75668e-08 -7.74793e-09 1.0796e-09 1.0065e-08 -4.4864e-09 -7.73091 5.47488 -0.417314 1.0796e-09 1.0065e-08 -4.48641e-09 -2.90554 0.965183 -0.102902 1.07959e-09 1.0065e-08 -4.48641e-09 -10.2786 0.731801 -0.0259123 1.07961e-09 1.0065e-08 -4.48642e-09 -2.22167 -0.733487 0.20892 -2.03217e-16 0.0 -3.88251e-19 -17.8459 -32.7663 -14.5779 -47.7911 88.5354 47.8806 -0.0330105 18.0109 -5.63024 2.03217e-16 0.0 3.88251e-19 -17.1254 -41.7793 1.48205 0.827758 53.6984 -0.70625 0.671951 -17.9081 0.247737
7.85021 72.4888 36.1162 -9.6374 24.0118 10.1248 7.71512 13.5023 0.668561 1.12002 -8.5791 0.375612 -2.0296 -3.16924 -1.44643 -1.482 -18.7124 -2.45987 -0.0 0.0 0.0 -0.0 0.0 0.0 2.36419e-13 2.90027e-13 -2.54382e-13 90.8553 21.7371 -27.001 -27.4692 -28.0855 64.2478 -0.0681006 -7.39877 -1.04578 -9.92406e-10 -2.22165e-09 3.25384e-09 -1.73007e-09 -3.80217e-09 5.60678e-09 -9.92393e-10 -2.22165e-09 3.25383e-09 7.73091 5.47488 0.417314 -9.92401e-10 -2.22165e-09 3.25384e-09 2.90554 0.965183 0.102902 -9.924e-10 -2.22165e-09 3.25384e-09 10.2786 0.731801 0.0259123 -9.92414e-10 -2.22165e-09 3.25385e-09 2.22167 -0.733487 -0.20892 2.36418e-13 2.90027e-13 -2.546e-13 -104.782 33.8556 31.5834 26.3577 -45.5312 -94.5792 0.645471 -22.2043 3.28862 -1.18323e-10 8.28615e-09 -4.06559e-09 -1.29149e-10 1.45084e-08 -7.03612e-09 -1.18323e-10 8.28616e-09 -4.06558e-09 -7.73091 5.47488 -0.417314 -1.18323e-10 8.28615e-09 -4.06559e-09 -2.90554 0.965183 -0.102902 -1.18331e-10 8.28615e-09 -4.06559e-09 -10.2786 0.731801 -0.0259123 -1.18316e-10 8.28615e-09 -4.0656e-09 -2.22167 -0.733487 0.20892 -2.03217e-16 0.0 -3.88251e-19 -20.5214 -36.3147 -15.9651 -129.79 88.5406 129.873 -0.113271 17.1157 -5.9589 2.03217e-16 0.0 3.88251e-19 -17.8173 -40.0746 0.893484 0.843028 54.5863 -0.842311 0.67789 -20.0302 0.259251
8.50445 72.0811 38.8928 -8.9107 24.6284 10.546 6.94318 13.1162 0.279813 1.18846 -8.66645 0.256072 -2.1374 -3.32779 -1.54933 -1.354 -18.7014 -2.60389 -0.0 0.0 0.0 -0.0 0.0 0.0 2.5326e-14 3.31396e-13 2.11714e-14 91.2297 20.519 -28.2486 -27.3514 -27.5968 63.4194 -0.0686052 -7.424 -1.04939 -7.48182e-10 -1.5962e-09 3.13642e-09 -1.31129e-09 -2.72656e-09 5.41085e-09 -7.48168e-10 -1.59621e-09 3.1364e-09 7.73091 5.47488 0.417314 -7.48173e-10 -1.59622e-09 3.13642e-09 2.90554 0.965183 0.102902 -7.48178e-10 -1.59621e-09 3.13642e-09 10.2786 0.731801 0.0259123 -7.48192e-10 -1.59621e-09 3.13642e-09 2.22167 -0.733487 -0.20892 2.53556e-14 3.31402e-13 2.10013e-14 -102.956 34.7547 27.8844 26.0602 -46.1285 -95.8601 0.632721 -21.998 3.25478 -1.46202e-09 6.39055e-09 -3.54718e-09 -2.46737e-09 1.12443e-08 -6.1579e-09 -1.46202e-09 6.39055e-09 -3.54717e-09 -7.73091 5.47488 -0.417314 -1.46202e-09 6.39054e-09 -3.54718e-09 -2.90554 0.965183 -0.102902 -1.46203e-09 6.39055e-09 -3.54719e-09 -10.2786 0.731801 -0.0259123 -1.46202e-09 6.39055e-09 -3.5472e-09 -2.22167 -0.733487 0.20892 -2.03217e-16 0.0 -3.88251e-19 -23.1753 -39.8061 -17.4588 -154.695 87.3071 154.777 -0.197854 16.2321 -6.34044 2.03217e-16 0.0 3.88251e-19 -18.2662 -38.2713 0.477583 0.851624 55.2486 -0.969539 0.540344 -21.7988 -0.0322052
